<svg viewBox="0 0 200 200" xmlns="http://www.w3.org/2000/svg">
  <defs>
    <style>
      @media (prefers-color-scheme: dark) {
        circle { fill: #0E1B4D; }
        path { stroke: white; }
      }
      @media (prefers-color-scheme: light) {
        circle { fill: #0E1B4D; }
        path { stroke: white; }
      }
    </style>
  </defs>
  <circle cx="100" cy="100" r="100" fill="#0E1B4D"/>
  <path d="M 50 100 C 50 75 70 60 85 60 C 100 60 110 75 100 85 C 90 95 80 90 75 85 C 70 80 75 70 85 70 C 95 70 100 80 100 100 C 100 120 95 130 85 130 C 70 130 50 125 50 100 M 150 100 C 150 75 130 60 115 60 C 100 60 90 75 100 85 C 110 95 120 90 125 85 C 130 80 125 70 115 70 C 105 70 100 80 100 100 C 100 120 105 130 115 130 C 130 130 150 125 150 100" stroke="white" stroke-width="16" fill="none" stroke-linecap="round" stroke-linejoin="round"/>
</svg>